<?xml version="1.0" encoding="utf-8"?>
<!-- Generator: Adobe Illustrator 24.2.0, SVG Export Plug-In . SVG Version: 6.00 Build 0)  -->
<svg version="1.1" id="Layer_1" xmlns="http://www.w3.org/2000/svg" xmlns:xlink="http://www.w3.org/1999/xlink" x="0px" y="0px"
	 viewBox="0 0 595.3 157.3" style="enable-background:new 0 0 595.3 157.3;" xml:space="preserve">
<style type="text/css">
	.st0{fill:#231F20;}
</style>
<g>
	<g>
		<path class="st0" d="M420.7,135.8c0.1,2.4,0.7,3.1,1.7,3.1c0.9,0,1.5-0.4,2.4-1.7l2.6,2c-1.2,1.8-2.7,3.1-5.2,3.1
			c-3.7,0-5.6-2.9-5.6-7.7c0-5.1,2-7.8,5.6-7.8c3.5,0,5.4,2.6,5.4,8c0,0.3,0,0.8,0,1H420.7z M422.1,130c-0.9,0-1.3,0.7-1.4,2.9h3
			C423.6,130.8,423.2,130,422.1,130z"/>
		<path class="st0" d="M443,141.9v-9.8c0-1.1-0.3-1.7-1-1.7c-0.5,0-0.9,0.2-1.3,0.6v10.9h-4.3v-9.8c0-1.1-0.3-1.7-1-1.7
			c-0.5,0-0.9,0.2-1.3,0.6v10.9h-4.4v-14.9h4.4v0.9c0.7-0.6,1.6-1.2,2.9-1.2c1.6,0,2.5,0.5,3.3,1.4c0.9-0.8,1.9-1.4,3.5-1.4
			c2.5,0,3.7,1.5,3.7,4.6v10.5H443z"/>
		<path class="st0" d="M463,141.9v-9.8c0-1.1-0.3-1.7-1-1.7c-0.5,0-0.9,0.2-1.3,0.6v10.9h-4.3v-9.8c0-1.1-0.3-1.7-1-1.7
			c-0.5,0-0.9,0.2-1.3,0.6v10.9h-4.4v-14.9h4.4v0.9c0.7-0.6,1.6-1.2,2.9-1.2c1.6,0,2.5,0.5,3.3,1.4c0.9-0.8,1.9-1.4,3.5-1.4
			c2.5,0,3.7,1.5,3.7,4.6v10.5H463z"/>
		<path class="st0" d="M489.3,141.9v-9.8c0-1.1-0.4-1.7-1.1-1.7c-0.6,0-1,0.2-1.4,0.6v10.9h-4.4v-14.9h4.4v0.9
			c0.8-0.7,1.6-1.2,3-1.2c2.5,0,3.8,1.5,3.8,4.6v10.5H489.3z"/>
		<path class="st0" d="M502.6,141.9v-0.9c-0.8,0.7-1.6,1.2-3.1,1.2c-2.5,0-3.7-1.5-3.7-4.6v-10.5h4.4v9.8c0,1.1,0.4,1.7,1.1,1.7
			c0.6,0,1-0.2,1.4-0.6v-10.9h4.4v14.9H502.6z"/>
		<path class="st0" d="M512.9,135.8c0.1,2.4,0.7,3.1,1.7,3.1c0.9,0,1.5-0.4,2.4-1.7l2.6,2c-1.2,1.8-2.7,3.1-5.2,3.1
			c-3.7,0-5.6-2.9-5.6-7.7c0-5.1,2-7.8,5.6-7.8c3.5,0,5.4,2.6,5.4,8c0,0.3,0,0.8,0,1H512.9z M514.4,130c-0.9,0-1.3,0.7-1.4,2.9h3
			C515.8,130.8,515.4,130,514.4,130z"/>
		<path class="st0" d="M521.9,141.9v-19l4.4-1.7v20.7H521.9z"/>
	</g>
	<g>
		<path class="st0" d="M112.3,45.1c-4,11.2-7.4,21.8-8.7,28.2c-1.2-6.4-4.7-17.2-8.6-28l-8.1-22.4H67.1v91.2h19.8V93.8
			c0-9.8-0.3-18.9-0.5-26.5c2,7.2,5.6,18.6,8.6,26.7l8.6,22.8l8.6-22.8c3.1-8.1,6.6-19.5,8.6-26.7c-0.4,7.8-0.5,16.7-0.5,26.5v20.2
			h19.7V22.8h-19.7L112.3,45.1z"/>
		<path class="st0" d="M177.3,44.2c-9.5,0-17.7,2.9-24.5,7l5.7,13.9c5.7-3.6,10.2-5.2,15.5-5.2c4.8,0,6.9,1.8,6.9,6.8v5.3
			c-2.7-1.3-6-2.2-10.8-2.2c-12.6,0-20.1,7.6-20.1,22.5c0,15.5,6.4,23.1,17.7,23.1c5.2,0,9.5-2.1,13.2-5.3v3.9h19.7V66
			C200.7,51.4,193.4,44.2,177.3,44.2z M181,98.4c-1.6,1.3-3.9,2.2-6.6,2.2c-3.9,0-5.5-2.7-5.5-8.5c0-6.4,1.8-8.7,5.3-8.7
			c3.1,0,5,0.5,6.8,1.4V98.4z"/>
		<path class="st0" d="M236.5,70.9c-6.3-2.6-7.2-3.9-7.2-7c0-2.1,1.3-3.8,4.3-3.8c3.4,0,6.4,1.2,12.8,6.5l9.6-14.2
			c-6.8-5.1-12.6-8.2-22.4-8.2c-14.9,0-22.7,8.2-22.7,20.6c0,11.6,4.6,16.8,20.5,23.3c6,2.5,6.8,3.8,6.8,6.9c0,3-2.3,4.6-5.3,4.6
			c-3.6,0-6.9-1.4-14.2-7.2l-9.6,14.2c7.8,5.9,14.2,8.9,23.7,8.9c14.3,0,24.1-7.3,24.1-21.1C256.8,82.9,251.8,77.2,236.5,70.9z"/>
		<path class="st0" d="M507.8,45.6v50c-1.8,1.6-3.6,2.6-6.3,2.6c-3.3,0-5-2.5-5-7.7v-45h-20.1v48.5c0,14.6,5.9,21.4,17.2,21.4
			c6.5,0,10.6-2.3,14.1-5.3v3.9h20.1V45.6H507.8z"/>
		<path class="st0" d="M314.3,66c0-14.6-7.3-21.8-23.3-21.8c-9.5,0-17.7,2.9-24.5,7l5.7,13.9c5.7-3.6,10.2-5.2,15.5-5.2
			c4.8,0,6.9,1.8,6.9,6.8v5.3c-2.7-1.3-6-2.2-10.8-2.2c-12.6,0-20.1,7.6-20.1,22.5c0,13.9,5.1,21.4,14.4,22.8l36.2-22.1V66z
			 M294.6,98.4c-1.6,1.3-3.9,2.2-6.6,2.2c-3.9,0-5.5-2.7-5.5-8.5c0-6.4,1.8-8.7,5.3-8.7c3.1,0,5,0.5,6.8,1.4V98.4z"/>
		<polygon class="st0" points="321.3,40.2 321.3,88.9 321.3,117.8 321.3,138.7 347.9,123.6 347.9,101.5 347.9,72.7 347.9,64.4 		"/>
		<polygon class="st0" points="353.1,69.5 353.1,98.4 353.1,120.6 379.1,105.8 379.1,82.5 379.1,53.7 		"/>
		<polygon class="st0" points="383.9,50.8 384.1,79.5 384.5,127.5 411.2,143.6 411.2,63 411.2,34.1 		"/>
		<path class="st0" d="M449.5,44.2c-5.7,0-9.4,2.3-12.8,5.5v-2.3V18.6l-20.1,12.2v28.8v54.4h20.1v-3.8c3.1,2.7,7,5.2,12.3,5.2
			c12.3,0,19-11.2,19-36C468,55.5,461.1,44.2,449.5,44.2z M442.5,98.5c-2.6,0-4.3-1-5.9-2.5V63.5c1.7-1.4,3.4-2.3,5.7-2.3
			c3.8,0,5.6,2.5,5.6,18.9C448,96.2,446.2,98.5,442.5,98.5z"/>
		<path class="st0" d="M314.3,93.4v-0.2l-36.2,22.1c0,0,0,0,0.1,0L314.3,93.4z"/>
	</g>
	<path class="st0" d="M479.8,131.3c0-3.2-1.6-4.8-5.1-4.8c-2.1,0-3.9,0.6-5.4,1.6l1.3,3.1c1.3-0.8,2.2-1.2,3.4-1.2
		c1.1,0,1.5,0.4,1.5,1.5v1.2c-0.6-0.3-1.3-0.5-2.4-0.5c-2.8,0-4.4,1.7-4.4,5c0,3.1,1.1,4.7,3.2,5l8-4.9V131.3z M475.5,138.5
		c-0.3,0.3-0.9,0.5-1.5,0.5c-0.9,0-1.2-0.6-1.2-1.9c0-1.4,0.4-1.9,1.2-1.9c0.7,0,1.1,0.1,1.5,0.3V138.5z"/>
</g>
</svg>
